<?xml version="1.0" standalone="no"?>
<!DOCTYPE svg PUBLIC "-//W3C//DTD SVG 20010904//EN"
 "http://www.w3.org/TR/2001/REC-SVG-20010904/DTD/svg10.dtd">
<svg version="1.0" xmlns="http://www.w3.org/2000/svg"
 width="242.000000pt" height="231.000000pt" viewBox="0 0 242.000000 231.000000"
 preserveAspectRatio="xMidYMid meet">
<metadata>
Created by potrace 1.16, written by Peter Selinger 2001-2019
</metadata>
<g transform="translate(0.000000,231.000000) scale(0.100000,-0.100000)"
fill="#000000" stroke="none">
<path d="M1042 2290 c-88 -23 -191 -76 -252 -130 l-45 -39 470 0 470 0 -42 38
c-142 128 -398 184 -601 131z"/>
<path d="M0 985 l0 -975 505 0 505 0 0 30 0 30 -470 0 -470 0 0 915 0 915 190
0 c105 0 190 3 190 8 0 4 3 17 6 30 l6 22 -231 0 -231 0 0 -975z"/>
<path d="M1974 1938 c3 -13 6 -26 6 -30 0 -5 88 -8 195 -8 l195 0 0 -915 0
-915 -470 0 -470 0 0 -30 0 -30 495 0 495 0 0 975 0 975 -226 0 -226 0 6 -22z"/>
<path d="M1625 1811 c3 -5 0 -21 -6 -35 -10 -21 -9 -29 4 -44 18 -20 24 -82 8
-82 -5 0 -12 -8 -15 -17 -3 -10 -3 5 -1 34 4 50 -7 79 -18 48 -4 -8 -15 -12
-27 -10 -11 2 -20 -1 -20 -7 0 -5 -6 -8 -12 -5 -47 17 -58 18 -58 4 0 -9 -6
-17 -12 -19 -8 -3 -1 -12 15 -22 33 -22 35 -38 3 -30 -21 5 -23 3 -18 -21 4
-25 3 -26 -16 -16 -29 15 -45 14 -38 -4 3 -9 0 -15 -9 -15 -8 0 -15 -4 -15
-10 0 -7 -145 -10 -416 -10 l-417 0 7 -46 c7 -57 52 -163 95 -229 l32 -50 200
3 c124 2 197 6 194 12 -4 6 -17 10 -31 10 -14 0 -22 4 -19 10 4 6 -11 10 -37
10 -31 0 -39 3 -28 10 12 7 8 10 -15 10 -16 0 -37 5 -45 10 -11 7 -8 10 16 10
46 0 94 11 94 21 0 5 -24 9 -54 9 -30 0 -57 4 -60 9 -3 4 -47 12 -97 16 -67 5
-88 10 -80 18 8 8 108 12 317 14 263 3 305 1 295 -11 -9 -11 -9 -16 0 -21 8
-6 8 -9 0 -15 -7 -3 -9 -14 -5 -23 7 -19 20 -22 29 -7 3 6 13 10 21 10 9 0 12
-5 8 -11 -5 -8 1 -10 17 -7 13 3 49 2 79 -2 l55 -7 -42 -8 c-24 -4 -40 -11
-37 -16 3 -5 -11 -9 -30 -9 -20 0 -36 -4 -36 -10 0 -5 -9 -10 -19 -10 -11 0
-23 -4 -26 -10 -4 -6 45 -10 138 -10 142 0 145 0 151 -22 3 -13 6 -34 6 -48 1
-43 110 82 159 182 56 115 72 182 70 308 -2 106 -9 133 -35 123 -8 -3 -14 -1
-14 5 0 6 -9 8 -19 5 -10 -3 -28 0 -40 6 -24 14 -25 11 -9 -41 9 -31 9 -41 -2
-51 -8 -7 -10 -8 -7 -1 9 16 -25 108 -40 112 -7 1 -13 -4 -13 -12 0 -11 -5
-12 -25 -3 -14 7 -25 15 -25 20 0 4 -7 7 -16 7 -8 0 -13 -4 -9 -9z"/>
<path d="M1240 943 c-21 -22 -46 -63 -59 -97 -24 -65 -51 -222 -51 -301 0 -44
-6 -58 -50 -118 -28 -37 -55 -65 -60 -62 -13 8 -13 59 1 146 6 39 8 73 6 76
-3 3 -15 2 -26 -2 -14 -4 -23 -20 -31 -58 -13 -64 -55 -153 -76 -161 -23 -9
-27 17 -21 130 5 103 4 105 -16 102 -14 -2 -25 -14 -30 -33 -17 -59 -73 -158
-105 -186 -36 -32 -57 -38 -48 -13 18 48 47 176 56 252 6 48 12 102 15 120 3
29 1 32 -21 32 -14 0 -27 -7 -31 -17 -3 -10 -39 -85 -78 -168 -73 -151 -115
-209 -136 -188 -9 9 -2 41 25 122 61 186 47 244 -69 275 -11 3 -38 1 -59 -4
-33 -7 -44 -5 -64 11 -32 25 -86 25 -112 -1 -22 -22 -28 -75 -7 -67 6 2 11 13
10 25 -5 42 60 61 96 28 18 -17 18 -19 -7 -64 -38 -67 -37 -145 1 -178 32 -28
69 -31 91 -8 23 22 21 118 -4 173 -11 24 -20 47 -20 51 0 16 45 19 76 4 64
-31 69 -89 18 -240 -42 -127 -40 -154 10 -154 64 0 98 47 202 274 29 65 30 40
5 -91 -43 -222 -127 -385 -223 -437 -44 -24 -85 -16 -94 18 -9 36 2 60 50 110
48 49 89 73 156 92 l45 12 -36 1 c-82 2 -220 -107 -235 -185 -6 -33 -4 -40 20
-61 36 -31 87 -30 143 3 49 29 121 119 149 188 14 33 25 46 39 46 31 0 63 27
95 78 l28 46 7 -40 c15 -96 60 -121 112 -60 l31 34 6 -29 c12 -64 69 -50 130
32 41 55 46 58 46 34 0 -34 17 -65 35 -65 9 0 24 14 34 31 l19 31 7 -39 c10
-60 40 -103 71 -103 35 0 77 46 152 165 l59 95 23 -66 c12 -36 20 -67 18 -69
-1 -1 -18 -10 -35 -19 -109 -55 -146 -155 -70 -186 19 -7 16 -9 -18 -11 -22
-1 -53 -1 -68 0 -36 3 -57 -15 -57 -48 0 -70 86 -67 103 4 3 11 5 4 6 -17 1
-52 28 -52 34 -1 l4 38 1 -37 2 -38 55 0 c42 0 55 3 55 15 0 8 -4 15 -9 15 -5
0 -11 18 -13 40 -2 27 0 40 9 40 24 0 64 46 72 82 5 20 5 55 1 77 -7 40 -6 41
34 65 l41 24 6 -49 c9 -62 31 -89 76 -89 41 0 82 28 132 92 l37 46 12 -58 c24
-116 71 -129 142 -38 54 67 94 137 85 146 -4 4 -16 -4 -26 -18 -10 -14 -39
-53 -64 -88 -25 -35 -51 -62 -58 -59 -17 5 -35 73 -36 132 -1 47 2 54 40 90
48 47 110 135 134 191 10 21 18 65 19 97 1 47 -3 61 -18 73 -43 31 -116 4
-154 -57 -33 -56 -63 -169 -69 -264 -5 -82 -8 -95 -40 -143 -42 -62 -96 -112
-122 -112 -23 0 -41 40 -41 90 0 33 3 40 19 40 11 0 34 12 51 26 28 24 31 32
28 73 -3 45 -4 46 -40 49 -46 4 -82 -27 -97 -85 -6 -22 -21 -49 -33 -60 -22
-19 -61 -43 -72 -43 -2 0 -14 26 -26 58 -26 69 -29 152 -6 186 21 32 20 36 -4
36 -30 0 -58 -38 -66 -87 -7 -46 -73 -166 -145 -261 -45 -60 -56 -59 -78 7
-19 58 -14 84 22 106 67 42 103 144 54 153 -26 5 -94 -69 -137 -148 l-34 -65
-7 40 c-6 36 -3 44 26 76 110 123 193 349 151 414 -26 40 -79 35 -126 -12z
m108 -50 c4 -61 -26 -140 -94 -249 -65 -106 -75 -111 -68 -33 8 83 39 221 60
262 25 48 56 78 79 75 17 -3 20 -12 23 -55z m822 2 c35 -42 -19 -178 -106
-273 -49 -53 -53 -55 -54 -31 -1 88 45 242 86 286 34 36 55 41 74 18z m-590
-566 c0 -40 -5 -55 -25 -74 -29 -30 -75 -33 -99 -6 -16 17 -16 23 -4 48 14 30
104 96 119 87 5 -3 9 -28 9 -55z"/>
<path d="M1090 210 c0 -5 -20 -10 -44 -10 -44 0 -45 0 -49 -37 l-4 -38 -1 38
c-3 48 -31 53 -33 5 l-1 -33 -7 30 c-5 23 -12 31 -34 33 -26 3 -27 2 -27 -47
0 -47 2 -51 25 -51 13 0 28 7 33 16 8 15 10 15 15 0 4 -9 18 -16 31 -16 20 0
27 6 32 28 10 47 12 48 13 10 1 -27 5 -38 16 -38 10 0 15 11 15 35 0 19 5 35
10 35 6 0 10 -16 10 -35 0 -19 5 -35 10 -35 6 0 10 27 10 60 0 33 -4 60 -10
60 -5 0 -10 -4 -10 -10z"/>
</g>
</svg>
